<svg xmlns="http://www.w3.org/2000/svg" width="20" height="20" fill="none"><path fill="#fff" d="M14.19 0H5.81C2.17 0 0 2.17 0 5.81v8.37C0 17.83 2.17 20 5.81 20h8.37c3.64 0 5.81-2.17 5.81-5.81V5.81C20 2.17 17.83 0 14.19 0M7.6 14.2c0 .99-.81 1.8-1.8 1.8S4 15.19 4 14.2s.81-1.8 1.8-1.8h.8c.55 0 1 .45 1 1zm0-7.6c0 .55-.45 1-1 1h-.8C4.81 7.6 4 6.79 4 5.8S4.81 4 5.8 4s1.8.81 1.8 1.8zm4.55 4.65c0 .49-.4.9-.9.9H8.74c-.49 0-.9-.4-.9-.9V8.74c0-.49.4-.9.9-.9h2.51c.49 0 .9.4.9.9zM14.2 16c-.99 0-1.8-.81-1.8-1.8v-.8c0-.55.45-1 1-1h.8c.99 0 1.8.81 1.8 1.8s-.81 1.8-1.8 1.8m0-8.4h-.8c-.55 0-1-.45-1-1v-.8c0-.99.81-1.8 1.8-1.8s1.8.81 1.8 1.8-.81 1.8-1.8 1.8"/></svg>